<mxfile host="65bd71144e">
    <diagram id="AOkyoBN3KJ2Y7n7DC-3p" name="Page-1">
        <mxGraphModel dx="1038" dy="784" grid="0" gridSize="10" guides="1" tooltips="1" connect="1" arrows="1" fold="1" page="1" pageScale="1" pageWidth="850" pageHeight="1100" background="#ffffff" math="0" shadow="0">
            <root>
                <mxCell id="0"/>
                <mxCell id="1" parent="0"/>
                <mxCell id="2" value="Azure API Management" style="rounded=1;whiteSpace=wrap;html=1;fillColor=none;strokeColor=#000000;fontColor=#000000;labelPosition=center;verticalLabelPosition=bottom;align=center;verticalAlign=top;" vertex="1" parent="1">
                    <mxGeometry x="100" y="120" width="374" height="492" as="geometry"/>
                </mxCell>
                <mxCell id="3" value="Workspace Blue Team" style="rounded=1;whiteSpace=wrap;html=1;strokeColor=#000000;fillColor=none;fontColor=#000000;labelPosition=center;verticalLabelPosition=bottom;align=center;verticalAlign=top;" vertex="1" parent="1">
                    <mxGeometry x="212" y="235" width="120" height="60" as="geometry"/>
                </mxCell>
                <mxCell id="4" value="Workspace Red Team" style="rounded=1;whiteSpace=wrap;html=1;strokeColor=#000000;fillColor=none;fontColor=#000000;labelPosition=center;verticalLabelPosition=bottom;align=center;verticalAlign=top;" vertex="1" parent="1">
                    <mxGeometry x="212" y="394" width="120" height="60" as="geometry"/>
                </mxCell>
                <mxCell id="5" value="" style="aspect=fixed;html=1;points=[];align=center;image;fontSize=12;image=img/lib/azure2/integration/API_Management_Services.svg;strokeColor=#000000;fillColor=none;" vertex="1" parent="1">
                    <mxGeometry x="150" y="89" width="65" height="60" as="geometry"/>
                </mxCell>
            </root>
        </mxGraphModel>
    </diagram>
</mxfile>